<svg version="1.1" id="Layer_1" xmlns="http://www.w3.org/2000/svg" xmlns:xlink="http://www.w3.org/1999/xlink" x="0px" y="0px" style="enable-background:new 0 0 2848 1720;" xml:space="preserve" viewBox="1099.89 547.41 648.22 625.19"> <style type="text/css">.st1{fill:#A49CCD;} </style>
 <g> 	<g class="st1"> 		<g> 			<path  d="M1501.26,803.29v41.57h189.05v74.07h-148.1l-40.95-39.91v163.33h-64.59l0.01,0.02h-237.96h-93.7h-5.12 				l94.78,32.2c56.99,60.35,137.75,98.03,227.31,98.03c172.64,0,312.59-139.95,312.59-312.6c0-30.99-4.53-60.91-12.93-89.17h-264.83 				L1501.26,803.29z"></path> 			<path d="M1198.64,696.76v261.87h163.6l40.27,40.73V770.83l-49.39-74.07h335.49c0,0,0,0,0,0l59.5,0l-81.8-31.73 				c-57.28-71.68-145.43-117.62-244.33-117.62c-101.63,0-191.92,48.51-249.01,123.63l-73.08,25.72H1198.64z"></path> 		</g> 	</g> </g> </svg>