<?xml version="1.0" encoding="utf-8"?>
<!-- Generator: Adobe Illustrator 27.8.1, SVG Export Plug-In . SVG Version: 6.00 Build 0)  -->
<svg version="1.1" id="Layer_1" xmlns="http://www.w3.org/2000/svg" xmlns:xlink="http://www.w3.org/1999/xlink" x="0px" y="0px"
	 viewBox="0 0 2848 1720" style="enable-background:new 0 0 2848 1720;" xml:space="preserve">
<style type="text/css">
	.st0{fill:#5B44BD;}
	.st1{fill:#A49CCD;}
</style>
<g>
	<g>
		<g>
			<path class="st0" d="M1736.43,849.83c0,172.55-139.88,312.43-312.43,312.43c-6.93,0-13.8-0.26-20.62-0.69l-56.58,21.04
				l287.02-287.02l37.11,37.11V716.2l-403.83,403.83c-6.06-3.52-11.99-7.24-17.79-11.14l374.6-374.6h-184.18l68.87,68.87
				l-285.73,285.73c-16.35-13.78-31.3-29.2-44.52-46.01l-37.14,11.84l193.19-193.19l31.49,31.5V709.29L1127.3,947.88
				c-2.07-6.25-3.94-12.57-5.62-18.97l204.29-204.28h-156.34l58.46,58.46l-113.08,113.08c-2.26-15.12-3.44-30.6-3.44-46.34
				c0-172.55,139.88-312.43,312.43-312.43C1596.55,537.4,1736.43,677.28,1736.43,849.83z"/>
		</g>
	</g>
</g>
</svg>
