<?xml version="1.0" encoding="utf-8"?>
<!-- Generator: Adobe Illustrator 27.8.1, SVG Export Plug-In . SVG Version: 6.00 Build 0)  -->
<svg version="1.1" id="Layer_1" xmlns="http://www.w3.org/2000/svg" xmlns:xlink="http://www.w3.org/1999/xlink" x="0px" y="0px"
	 viewBox="0 0 2848 1720" style="enable-background:new 0 0 2848 1720;" xml:space="preserve">
<style type="text/css">
	.st0{fill:#5B44BD;}
	.st1{fill:#A49CCD;}
</style>
<g>
	<g>
		<g>
			<g>
				<polygon class="st0" points="809.62,697.72 771.23,697.72 771.23,872.51 905.96,872.51 905.96,837.46 809.62,837.46 				"/>
				<path class="st0" d="M1063.13,818.5c0,15.64-4.28,19.92-19.92,19.92h-48.65c-15.26,0-19.92-4.65-19.92-19.92V697.72h-38.39
					v126.51c0,32.49,15.79,48.29,48.29,48.29h68.68c32.49,0,48.29-15.79,48.29-48.29V697.72h-38.39V818.5z"/>
				<polygon class="st0" points="1244,797.21 1179.37,697.72 1146.35,697.72 1146.35,872.51 1182.83,872.51 1182.83,764.77 
					1233.07,840.56 1253.51,840.56 1303.75,764.77 1303.75,872.51 1340.23,872.51 1340.23,697.72 1308.4,697.72 				"/>
				<rect x="1387.93" y="697.72" class="st0" width="38.86" height="174.8"/>
				<polygon class="st0" points="1607.09,812.39 1505.95,697.72 1474.49,697.72 1474.49,872.51 1511.92,872.51 1511.92,755.94 
					1614.49,872.51 1644.52,872.51 1644.52,697.72 1607.09,697.72 				"/>
				<path class="st0" d="M1756.37,697.72l-81.41,174.8h41.18l15.98-36.96h85.23l16.22,36.96h42.59l-81.15-174.8H1756.37z
					 M1803.91,804.55h-58.12l29.06-66.82L1803.91,804.55z"/>
				<path class="st0" d="M2030.49,807.77c24.73-2.27,35.41-15.52,35.41-43.17v-23.37c0-30.5-13.01-43.52-43.52-43.52h-116.97v174.8
					h38.39v-62.48h45.53l43.64,62.48h43.79L2030.49,807.77z M1943.8,728.95h67.37c13.44,0,16.34,2.86,16.34,16.1v18.12
					c0,13.24-2.9,16.1-16.34,16.1h-67.37V728.95z"/>
			</g>
			<g>
				<g>
					<polygon class="st0" points="969.31,1022.28 995.71,1022.28 995.71,981.39 1052.64,981.39 1052.64,958.18 995.71,958.18 
						995.71,937.33 1058.42,937.33 1058.42,913.24 969.31,913.24 					"/>
				</g>
				<g>
					<rect x="1100.37" y="913.24" class="st0" width="26.68" height="109.04"/>
				</g>
				<g>
					<polygon class="st0" points="1256.27,980.14 1197.27,913.24 1175.93,913.24 1175.93,1022.28 1201.75,1022.28 1201.75,954.25 
						1261.61,1022.28 1282.09,1022.28 1282.09,913.24 1256.27,913.24 					"/>
				</g>
				<g>
					<g>
						<path class="st0" d="M1370.41,913.24l-50.78,109.04h28.44l9.68-22.4h49.58l9.82,22.4h29.29l-50.63-109.04H1370.41z
							 M1397.82,977.97h-30.43l15.21-34.98L1397.82,977.97z"/>
					</g>
				</g>
				<g>
					<polygon class="st0" points="1563.6,980.14 1504.6,913.24 1483.27,913.24 1483.27,1022.28 1509.08,1022.28 1509.08,954.25 
						1568.94,1022.28 1589.42,1022.28 1589.42,913.24 1563.6,913.24 					"/>
				</g>
				<g>
					<path class="st0" d="M1709.59,913.24h-42.48c-20.74,0-30.82,10.08-30.82,30.82v47.39c0,20.74,10.08,30.82,30.82,30.82h42.48
						c20.74,0,30.82-10.08,30.82-30.82v-15.94h-25.82v12.76c0,8.34-2.16,10.5-10.5,10.5h-30.92c-8.34,0-10.5-2.16-10.5-10.5v-41.03
						c0-8.34,2.16-10.5,10.5-10.5h30.92c8.34,0,10.5,2.16,10.5,10.5v11.46h25.82v-14.64
						C1740.41,923.33,1730.33,913.24,1709.59,913.24z"/>
				</g>
				<g>
					<polygon class="st0" points="1813.09,998.92 1813.09,976.92 1871.46,976.92 1871.46,954.71 1813.09,954.71 1813.09,936.6 
						1877.24,936.6 1877.24,913.24 1786.7,913.24 1786.7,1022.28 1878.69,1022.28 1878.69,998.92 					"/>
				</g>
			</g>
		</g>
	</g>
</g>
</svg>
