<?xml version="1.0" encoding="utf-8"?>
<!-- Generator: Adobe Illustrator 27.8.1, SVG Export Plug-In . SVG Version: 6.00 Build 0)  -->
<svg version="1.1" id="Layer_1" xmlns="http://www.w3.org/2000/svg" xmlns:xlink="http://www.w3.org/1999/xlink" x="0px" y="0px"
	 viewBox="0 0 2848 1720" style="enable-background:new 0 0 2848 1720;" xml:space="preserve">
<style type="text/css">
	.st0{fill:#5B44BD;}
	.st1{fill:#A49CCD;}
</style>
<g>
	<g>
		<g>
			<polygon class="st1" points="902.71,713.74 866.52,713.74 866.52,878.26 984.74,878.26 984.74,845.35 902.71,845.35 			"/>
			<path class="st1" d="M1111.89,807.99c0,13.16-3.14,23.03-9.4,29.61c-6.27,6.58-14.96,9.87-26.09,9.87
				c-11.13,0-19.82-3.41-26.09-10.22c-6.27-6.82-9.4-16.96-9.4-30.44v-93.07h-36.19v94.01c0,24.29,6.35,42.54,19.04,54.76
				c12.69,12.22,30.08,18.33,52.18,18.33c10.97,0,20.92-1.53,29.85-4.58c8.93-3.05,16.53-7.67,22.8-13.87
				c6.27-6.19,11.08-13.9,14.45-23.15c3.37-9.24,5.05-20.13,5.05-32.67v-92.84h-36.19V807.99z"/>
			<polygon class="st1" points="1267.12,783.31 1223.94,713.74 1184.98,713.74 1184.98,878.26 1220.7,878.26 1220.7,771.56 
				1266.42,841.12 1267.36,841.12 1313.54,770.85 1313.54,878.26 1349.26,878.26 1349.26,713.74 1310.3,713.74 			"/>
			<rect x="1390.63" y="713.74" class="st1" width="36.2" height="164.52"/>
			<polygon class="st1" points="1578.41,815.04 1501.33,713.74 1467.95,713.74 1467.95,878.26 1503.68,878.26 1503.68,773.67 
				1583.35,878.26 1614.14,878.26 1614.14,713.74 1578.41,713.74 			"/>
			<path class="st1" d="M1710.03,712.57l-70.51,165.69h36.9l15.04-36.9h69.57l15.04,36.9h37.84l-70.51-165.69H1710.03z
				 M1704.39,809.4l21.86-53.35l21.86,53.35H1704.39z"/>
			<path class="st1" d="M1941.29,819.5c10.5-3.92,19-10.07,25.5-18.45c6.5-8.38,9.75-19.23,9.75-32.55v-0.47
				c0-15.66-4.7-28.2-14.1-37.6c-11.13-11.12-27.11-16.69-47.95-16.69h-75.21v164.52h36.19v-52.65h28.44l35.25,52.65h42.3
				L1941.29,819.5z M1939.89,770.5c0,7.01-2.39,12.63-7.17,16.84c-4.78,4.21-11.63,6.31-20.56,6.31h-36.67v-47.01h35.96
				c8.93,0,15.9,1.95,20.92,5.85c5.01,3.9,7.52,9.75,7.52,17.54V770.5z"/>
			<polygon class="st1" points="1037.63,1006.05 1055.47,1006.05 1055.47,974.66 1094.15,974.66 1094.15,958.44 1055.47,958.44 
				1055.47,941.19 1099.36,941.19 1099.36,924.97 1037.63,924.97 			"/>
			<rect x="1153.8" y="924.97" class="st1" width="17.84" height="81.07"/>
			<polygon class="st1" points="1285.71,974.89 1247.72,924.97 1231.28,924.97 1231.28,1006.05 1248.88,1006.05 1248.88,954.51 
				1288.15,1006.05 1303.32,1006.05 1303.32,924.97 1285.71,924.97 			"/>
			<path class="st1" d="M1389.95,924.39l-34.75,81.65h18.18l7.41-18.18h34.28l7.41,18.18h18.65l-34.75-81.65H1389.95z
				 M1387.17,972.11l10.77-26.29l10.77,26.29H1387.17z"/>
			<polygon class="st1" points="1547.46,974.89 1509.47,924.97 1493.03,924.97 1493.03,1006.05 1510.63,1006.05 1510.63,954.51 
				1549.89,1006.05 1565.07,1006.05 1565.07,924.97 1547.46,924.97 			"/>
			<path class="st1" d="M1674.22,988.44c-3.2,1.7-7.12,2.55-11.76,2.55c-3.47,0-6.66-0.68-9.56-2.03c-2.9-1.35-5.37-3.18-7.41-5.5
				c-2.05-2.32-3.65-5.02-4.81-8.11c-1.16-3.09-1.74-6.37-1.74-9.84v-0.23c0-3.47,0.58-6.74,1.74-9.79
				c1.16-3.05,2.78-5.73,4.86-8.05c2.08-2.31,4.57-4.13,7.47-5.44c2.9-1.31,6.04-1.97,9.44-1.97c4.09,0,7.78,0.81,11.06,2.43
				c3.28,1.62,6.5,3.86,9.67,6.72l11.35-13.09c-1.85-1.85-3.86-3.55-6.02-5.1c-2.16-1.54-4.52-2.86-7.06-3.94
				c-2.55-1.08-5.39-1.93-8.51-2.55c-3.13-0.62-6.58-0.93-10.37-0.93c-6.25,0-11.97,1.1-17.14,3.3c-5.17,2.2-9.61,5.21-13.32,9.03
				c-3.71,3.82-6.6,8.26-8.69,13.32c-2.08,5.06-3.13,10.48-3.13,16.27v0.23c0,5.79,1.04,11.23,3.13,16.33
				c2.08,5.09,4.98,9.52,8.69,13.26s8.11,6.7,13.2,8.86c5.1,2.16,10.61,3.24,16.56,3.24c3.94,0,7.49-0.33,10.66-0.98
				c3.16-0.66,6.08-1.62,8.74-2.9c2.67-1.27,5.12-2.8,7.36-4.57c2.24-1.77,4.4-3.78,6.49-6.02l-11.35-11.47
				C1680.61,984.43,1677.43,986.74,1674.22,988.44z"/>
			<polygon class="st1" points="1766.36,973.15 1804.58,973.15 1804.58,957.29 1766.36,957.29 1766.36,940.84 1809.79,940.84 
				1809.79,924.97 1748.75,924.97 1748.75,1006.05 1810.37,1006.05 1810.37,990.18 1766.36,990.18 			"/>
		</g>
	</g>
</g>
</svg>
