<?xml version="1.0" encoding="utf-8"?>
<!-- Generator: Adobe Illustrator 27.8.1, SVG Export Plug-In . SVG Version: 6.00 Build 0)  -->
<svg version="1.1" id="Layer_1" xmlns="http://www.w3.org/2000/svg" xmlns:xlink="http://www.w3.org/1999/xlink" x="0px" y="0px"
	 viewBox="0 0 2848 1720" style="enable-background:new 0 0 2848 1720;" xml:space="preserve">
<style type="text/css">
	.st0{fill:#5B44BD;}
	.st1{fill:#A49CCD;}
</style>
<g>
	<g>
		<g>
			<path class="st1" d="M1466.71,689.61v22.98h104.5v40.94h-81.87l-22.63-22.06v90.28H1431l0.01,0.01h-131.54h-51.8h-2.83
				l52.39,17.8c31.5,33.36,76.14,54.19,125.65,54.19c95.43,0,172.8-77.36,172.8-172.8c0-17.13-2.5-33.67-7.15-49.29h-146.39
				L1466.71,689.61z"/>
			<path class="st1" d="M1299.43,630.72v144.76h90.43l22.26,22.51V671.67l-27.3-40.94h185.45c0,0,0,0,0,0l32.89,0l-45.22-17.54
				c-31.66-39.63-80.39-65.02-135.06-65.02c-56.18,0-106.09,26.82-137.65,68.34l-40.39,14.22H1299.43z"/>
		</g>
		<g>
			<polygon class="st1" points="1042.42,956.86 1015.93,956.86 1015.93,1077.28 1102.46,1077.28 1102.46,1053.2 1042.42,1053.2 			
				"/>
			<path class="st1" d="M1195.53,1025.84c0,9.63-2.3,16.86-6.88,21.68c-4.59,4.82-10.95,7.23-19.1,7.23c-8.14,0-14.51-2.5-19.1-7.48
				c-4.59-4.99-6.88-12.41-6.88-22.28v-68.13h-26.49v68.82c0,17.78,4.65,31.14,13.94,40.09c9.29,8.95,22.02,13.42,38.19,13.42
				c8.03,0,15.31-1.12,21.85-3.35c6.54-2.24,12.1-5.62,16.69-10.15c4.59-4.53,8.11-10.18,10.58-16.95c2.46-6.77,3.7-14.74,3.7-23.91
				v-67.96h-26.49V1025.84z"/>
			<polygon class="st1" points="1309.17,1007.78 1277.56,956.86 1249.04,956.86 1249.04,1077.28 1275.19,1077.28 1275.19,999.18 
				1308.65,1050.1 1309.34,1050.1 1343.14,998.66 1343.14,1077.28 1369.29,1077.28 1369.29,956.86 1340.78,956.86 			"/>
			<rect x="1399.57" y="956.86" class="st1" width="26.49" height="120.43"/>
			<polygon class="st1" points="1537.03,1031 1480.6,956.86 1456.17,956.86 1456.17,1077.28 1482.32,1077.28 1482.32,1000.73 
				1540.64,1077.28 1563.18,1077.28 1563.18,956.86 1537.03,956.86 			"/>
			<path class="st1" d="M1633.37,956l-51.61,121.29h27.01l11.01-27.01h50.92l11.01,27.01h27.7L1657.8,956H1633.37z M1629.24,1026.88
				l16-39.05l16,39.05H1629.24z"/>
			<path class="st1" d="M1802.66,1034.27c7.68-2.87,13.91-7.37,18.67-13.5c4.76-6.14,7.14-14.08,7.14-23.83v-0.34
				c0-11.47-3.44-20.64-10.32-27.53c-8.15-8.14-19.84-12.21-35.1-12.21h-55.05v120.43h26.49v-38.54h20.82l25.81,38.54h30.97
				L1802.66,1034.27z M1801.62,998.4c0,5.13-1.75,9.24-5.25,12.32c-3.5,3.08-8.52,4.62-15.05,4.62h-26.84v-34.41h26.32
				c6.54,0,11.64,1.43,15.31,4.28c3.67,2.86,5.51,7.13,5.51,12.84V998.4z"/>
			<polygon class="st1" points="1141.18,1170.82 1154.24,1170.82 1154.24,1147.85 1182.55,1147.85 1182.55,1135.98 1154.24,1135.98 
				1154.24,1123.35 1186.37,1123.35 1186.37,1111.48 1141.18,1111.48 			"/>
			<rect x="1226.21" y="1111.48" class="st1" width="13.06" height="59.34"/>
			<polygon class="st1" points="1322.78,1148.02 1294.97,1111.48 1282.93,1111.48 1282.93,1170.82 1295.82,1170.82 1295.82,1133.1 
				1324.56,1170.82 1335.66,1170.82 1335.66,1111.48 1322.78,1111.48 			"/>
			<path class="st1" d="M1399.07,1111.05l-25.43,59.77h13.31l5.43-13.31h25.09l5.43,13.31h13.65l-25.43-59.77H1399.07z
				 M1397.04,1145.98l7.88-19.24l7.88,19.24H1397.04z"/>
			<polygon class="st1" points="1514.37,1148.02 1486.57,1111.48 1474.53,1111.48 1474.53,1170.82 1487.41,1170.82 1487.41,1133.1 
				1516.15,1170.82 1527.26,1170.82 1527.26,1111.48 1514.37,1111.48 			"/>
			<path class="st1" d="M1607.16,1157.94c-2.35,1.24-5.21,1.87-8.6,1.87c-2.54,0-4.88-0.49-6.99-1.48
				c-2.12-0.99-3.93-2.33-5.43-4.03c-1.5-1.7-2.67-3.67-3.52-5.93c-0.85-2.26-1.27-4.66-1.27-7.21v-0.17c0-2.54,0.42-4.93,1.27-7.16
				c0.85-2.23,2.04-4.2,3.56-5.89c1.53-1.69,3.35-3.02,5.47-3.98c2.12-0.96,4.42-1.44,6.91-1.44c2.99,0,5.69,0.59,8.1,1.78
				c2.4,1.19,4.76,2.83,7.08,4.92l8.31-9.58c-1.36-1.36-2.83-2.6-4.41-3.73c-1.58-1.13-3.31-2.09-5.17-2.88
				c-1.87-0.79-3.94-1.41-6.23-1.87c-2.29-0.45-4.82-0.68-7.59-0.68c-4.58,0-8.76,0.81-12.55,2.42c-3.79,1.61-7.04,3.81-9.75,6.61
				c-2.71,2.8-4.83,6.05-6.36,9.75c-1.53,3.7-2.29,7.67-2.29,11.91v0.17c0,4.24,0.76,8.22,2.29,11.95c1.53,3.73,3.65,6.97,6.36,9.71
				c2.71,2.74,5.93,4.9,9.66,6.49c3.73,1.58,7.77,2.37,12.12,2.37c2.88,0,5.48-0.24,7.8-0.72c2.32-0.48,4.45-1.19,6.4-2.12
				c1.95-0.93,3.74-2.05,5.38-3.35c1.64-1.3,3.22-2.77,4.75-4.41l-8.31-8.39C1611.84,1155,1609.51,1156.69,1607.16,1157.94z"/>
			<polygon class="st1" points="1674.6,1146.74 1702.58,1146.74 1702.58,1135.13 1674.6,1135.13 1674.6,1123.09 1706.39,1123.09 
				1706.39,1111.48 1661.72,1111.48 1661.72,1170.82 1706.82,1170.82 1706.82,1159.21 1674.6,1159.21 			"/>
		</g>
	</g>
</g>
</svg>
